<?xml version="1.0" encoding="UTF-8" standalone="no"?>
<!-- Created with Inkscape (http://www.inkscape.org/) -->

<svg
   version="1.1"
   id="svg242"
   width="1600"
   height="1600"
   viewBox="0 0 1600 1600"
   sodipodi:docname="arcade-machine-vector-pdv.svg"
   inkscape:version="1.2 (dc2aedaf03, 2022-05-15)"
   xmlns:inkscape="http://www.inkscape.org/namespaces/inkscape"
   xmlns:sodipodi="http://sodipodi.sourceforge.net/DTD/sodipodi-0.dtd"
   xmlns="http://www.w3.org/2000/svg"
   xmlns:svg="http://www.w3.org/2000/svg">
  <defs
     id="defs246">
    <clipPath
       clipPathUnits="userSpaceOnUse"
       id="clipPath286">
      <path
         d="M 0,1200 H 1200 V 0 H 0 Z"
         id="path284" />
    </clipPath>
  </defs>
  <sodipodi:namedview
     id="namedview244"
     pagecolor="#ffffff"
     bordercolor="#000000"
     borderopacity="0.25"
     inkscape:showpageshadow="2"
     inkscape:pageopacity="0.0"
     inkscape:pagecheckerboard="0"
     inkscape:deskcolor="#d1d1d1"
     showgrid="false"
     inkscape:zoom="0.523125"
     inkscape:cx="800"
     inkscape:cy="800.95579"
     inkscape:window-width="1920"
     inkscape:window-height="1017"
     inkscape:window-x="-8"
     inkscape:window-y="-8"
     inkscape:window-maximized="1"
     inkscape:current-layer="g250">
    <inkscape:page
       x="0"
       y="0"
       id="page248"
       width="1600"
       height="1600" />
  </sodipodi:namedview>
  <g
     id="g250"
     inkscape:groupmode="layer"
     inkscape:label="Page 1"
     transform="matrix(1.3333333,0,0,-1.3333333,0,1600)">
    <g
       id="g252"
       transform="translate(514.8521,173.2168)">
      <path
         d="m 0,0 361.567,13.926 105.556,125.029 -258.256,83.01 z"
         style="fill:#e6e6e6;fill-opacity:1;fill-rule:evenodd;stroke:none"
         id="path254" />
    </g>
    <g
       id="g256"
       transform="translate(319.6694,261.8027)">
      <path
         d="m 0,0 2.051,689.597 229.445,84.582 V 638.934 l -101.93,-77.847 44.521,-275.485 21.096,-374.188 z"
         style="fill:#990000;fill-opacity:1;fill-rule:evenodd;stroke:none"
         id="path258" />
    </g>
    <g
       id="g260"
       transform="translate(551.1655,1035.9819)">
      <path
         d="M 0,0 266.948,-19.537 V -139.848 L 0,-135.245 Z"
         style="fill:#f5ac00;fill-opacity:1;fill-rule:evenodd;stroke:none"
         id="path262" />
    </g>
    <g
       id="g264"
       transform="translate(585.3608,1013.5474)">
      <path
         d="m 0,0 v -93.719 l 211.879,-3.655 v 81.868 z"
         style="fill:#ffcc00;fill-opacity:1;fill-rule:evenodd;stroke:none"
         id="path266" />
    </g>
    <g
       id="g268"
       transform="translate(449.2358,822.8892)">
      <path
         d="M 0,0 101.93,77.848 368.878,73.245 278.204,3.992 Z"
         style="fill:#660000;fill-opacity:1;fill-rule:evenodd;stroke:none"
         id="path270" />
    </g>
    <g
       id="g272"
       transform="translate(449.2358,822.8892)">
      <path
         d="M 0,0 278.204,3.992 317.812,-241.081 44.521,-275.485 Z"
         style="fill:#f5ac00;fill-opacity:1;fill-rule:evenodd;stroke:none"
         id="path274" />
    </g>
    <g
       id="g276"
       transform="translate(514.8521,173.2168)">
      <path
         d="M 0,0 -21.096,374.187 252.196,408.592 270.961,75.715 Z"
         style="fill:#f5ac00;fill-opacity:1;fill-rule:evenodd;stroke:none"
         id="path278" />
    </g>
    <g
       id="g280">
      <g
         id="g282"
         clip-path="url(#clipPath286)">
        <g
           id="g288"
           transform="translate(499.1099,452.5)">
          <path
             d="m 0,0 272.54,47.654 c 39.096,7.539 64.251,29.717 76.024,65.948 l -87.526,58.4 6.494,-70.223 L 83.214,74.887 Z"
             style="fill:#660000;fill-opacity:1;fill-rule:evenodd;stroke:none"
             id="path290" />
        </g>
        <g
           id="g292"
           transform="translate(449.2358,822.8892)">
          <path
             d="m 0,0 278.204,3.992 9.068,-56.106 -275.651,-19.81 z"
             style="fill:#e39400;fill-opacity:1;fill-rule:evenodd;stroke:none"
             id="path294" />
        </g>
        <g
           id="g296"
           transform="translate(509.2261,619.8667)">
          <path
             d="M 0,0 -25.877,173.961 202.657,178.06 226.229,24.337 Z"
             style="fill:#4d3812;fill-opacity:1;fill-rule:evenodd;stroke:none"
             id="path298" />
        </g>
        <g
           id="g300"
           transform="translate(489.4194,753.0151)">
          <path
             d="M 0,0 -6.07,40.813 222.463,44.912 226.85,16.31 Z"
             style="fill:#3b2b0e;fill-opacity:1;fill-rule:evenodd;stroke:none"
             id="path302" />
        </g>
        <g
           id="g304"
           transform="translate(486.6802,591.1992)">
          <path
             d="m 0,0 95.643,-63.813 c -17.378,-40.5 -43.97,-67.181 -83.213,-74.886 l -101.859,30.297 z"
             style="fill:#990000;fill-opacity:1;fill-rule:evenodd;stroke:none"
             id="path306" />
        </g>
        <g
           id="g308"
           transform="translate(486.6802,591.1992)">
          <path
             d="m 0,0 273.468,33.302 87.526,-58.4 -265.351,-38.715 z"
             style="fill:#cc3300;fill-opacity:1;fill-rule:evenodd;stroke:none"
             id="path310" />
        </g>
        <g
           id="g312"
           transform="translate(499.1099,452.5)">
          <path
             d="M 0,0 272.54,47.654 273.398,32.443 1.292,-22.955 Z"
             style="fill:#e39400;fill-opacity:1;fill-rule:evenodd;stroke:none"
             id="path314" />
        </g>
        <g
           id="g316"
           transform="translate(679.6875,596.373)">
          <path
             d="m 0,0 c 16.934,-2.566 30.662,-12.318 30.662,-21.781 0,-9.463 -13.728,-15.057 -30.662,-12.49 -16.935,2.566 -30.66,12.318 -30.66,21.781 0,9.463 13.725,15.057 30.66,12.49"
             style="fill:#380000;fill-opacity:1;fill-rule:evenodd;stroke:none"
             id="path318" />
        </g>
        <g
           id="g320"
           transform="translate(685.4102,577.2988)">
          <path
             d="m 0,0 c -1.074,-3.16 -4.502,-4.854 -7.662,-3.783 -3.158,1.068 -4.854,4.502 -3.779,7.66 L 9.471,65.095 c 1.072,3.159 4.502,4.854 7.66,3.78 3.16,-1.069 4.853,-4.498 3.785,-7.657 z"
             style="fill:#fff07f;fill-opacity:1;fill-rule:evenodd;stroke:none"
             id="path322" />
        </g>
        <g
           id="g324"
           transform="translate(701.7617,626.7378)">
          <path
             d="m 0,0 c 8.467,0 15.373,6.903 15.373,15.369 0,8.469 -6.906,15.373 -15.373,15.373 -8.469,0 -15.371,-6.904 -15.371,-15.373 C -15.371,6.903 -8.469,0 0,0"
             style="fill:#94ab13;fill-opacity:1;fill-rule:evenodd;stroke:none"
             id="path326" />
        </g>
        <g
           id="g328"
           transform="translate(699.9648,656.1948)">
          <path
             d="m 0,0 c 4.812,0 7.592,-3.906 6.203,-8.725 -1.391,-4.814 -6.42,-8.719 -11.238,-8.719 -4.813,0 -7.592,3.905 -6.203,8.719 C -9.848,-3.906 -4.818,0 0,0"
             style="fill:#a7bf1c;fill-opacity:1;fill-rule:evenodd;stroke:none"
             id="path330" />
        </g>
        <g
           id="g332"
           transform="translate(715.0645,649.8188)">
          <path
             d="m 0,0 c 1.313,-2.269 2.07,-4.901 2.07,-7.712 0,-8.487 -6.884,-15.373 -15.373,-15.373 -7.287,0 -13.39,5.073 -14.972,11.876 2.66,-4.581 7.621,-7.661 13.3,-7.661 8.491,0 15.373,6.879 15.373,15.373 C 0.398,-2.298 0.262,-1.128 0,0"
             style="fill:#82970a;fill-opacity:1;fill-rule:evenodd;stroke:none"
             id="path334" />
        </g>
        <g
           id="g336"
           transform="translate(736.877,440.7832)">
          <path
             d="M 0,0 30.282,7.682 35.588,-80.451 5.306,-88.137 Z"
             style="fill:#302305;fill-opacity:1;fill-rule:evenodd;stroke:none"
             id="path338" />
        </g>
        <g
           id="g340"
           transform="translate(748.4658,434.1309)">
          <path
             d="M 0,0 12.152,3.082 16.41,-67.645 4.261,-70.729 Z"
             style="fill:#4f3a0a;fill-opacity:1;fill-rule:evenodd;stroke:none"
             id="path342" />
        </g>
        <g
           id="g344"
           transform="translate(609.6191,590.5039)">
          <path
             d="m 0,0 c 10.742,-1.631 19.451,-7.816 19.451,-13.822 0,-6.002 -8.709,-9.551 -19.451,-7.92 -10.741,1.627 -19.451,7.812 -19.451,13.814 0,6.002 8.71,9.553 19.451,7.928"
             style="fill:#660000;fill-opacity:1;fill-rule:evenodd;stroke:none"
             id="path346" />
        </g>
        <g
           id="g348"
           transform="translate(609.7129,590.2871)">
          <path
             d="m 0,0 c 7.256,-1.102 13.445,-4.58 15.871,-8.529 l 1.918,-0.545 -0.947,-4.141 C 15.803,-17.742 8.66,-20.279 0,-18.969 c -9.371,1.422 -16.97,6.817 -16.97,12.055 0,0.656 0.122,1.281 0.347,1.867 l 1.422,5.399 3.802,-1.084 C -8.387,0.338 -4.387,0.662 0,0"
             style="fill:#ffbb00;fill-opacity:1;fill-rule:evenodd;stroke:none"
             id="path350" />
        </g>
        <g
           id="g352"
           transform="translate(611.123,595.666)">
          <path
             d="m 0,0 c 9.371,-1.422 16.971,-6.818 16.971,-12.057 0,-5.234 -7.6,-8.332 -16.971,-6.91 -9.369,1.418 -16.969,6.819 -16.969,12.053 0,5.236 7.6,8.336 16.969,6.914"
             style="fill:#ffdd30;fill-opacity:1;fill-rule:evenodd;stroke:none"
             id="path354" />
        </g>
        <g
           id="g356"
           transform="translate(636.5195,564.1133)">
          <path
             d="m 0,0 c 10.746,-1.631 19.451,-7.816 19.451,-13.818 0,-6.008 -8.705,-9.555 -19.451,-7.924 -10.74,1.627 -19.451,7.816 -19.451,13.818 0,6.002 8.711,9.549 19.451,7.924"
             style="fill:#660000;fill-opacity:1;fill-rule:evenodd;stroke:none"
             id="path358" />
        </g>
        <g
           id="g360"
           transform="translate(636.6172,563.8965)">
          <path
             d="m 0,0 c 7.252,-1.102 13.441,-4.58 15.867,-8.525 l 1.922,-0.549 -0.949,-4.141 H 16.838 C 15.799,-17.738 8.658,-20.279 0,-18.967 c -9.373,1.42 -16.971,6.815 -16.971,12.057 0,0.652 0.119,1.277 0.348,1.863 l 1.418,5.403 3.807,-1.088 C -8.387,0.338 -4.391,0.664 0,0"
             style="fill:#ffbb00;fill-opacity:1;fill-rule:evenodd;stroke:none"
             id="path362" />
        </g>
        <g
           id="g364"
           transform="translate(638.0234,569.2754)">
          <path
             d="m 0,0 c 9.375,-1.418 16.971,-6.818 16.971,-12.057 0,-5.234 -7.596,-8.328 -16.971,-6.91 -9.369,1.422 -16.967,6.819 -16.967,12.055 0,5.238 7.598,8.334 16.967,6.912"
             style="fill:#ffdd30;fill-opacity:1;fill-rule:evenodd;stroke:none"
             id="path366" />
        </g>
        <g
           id="g368"
           transform="translate(728.3906,603.1577)">
          <path
             d="m 0,0 c 9.676,-1.468 17.52,-7.041 17.52,-12.447 0,-5.406 -7.844,-8.601 -17.52,-7.133 -9.676,1.469 -17.519,7.039 -17.519,12.448 0,5.405 7.843,8.601 17.519,7.132"
             style="fill:#660000;fill-opacity:1;fill-rule:evenodd;stroke:none"
             id="path370" />
        </g>
        <g
           id="g372"
           transform="translate(728.4766,602.9644)">
          <path
             d="m 0,0 c 6.529,-0.991 12.105,-4.125 14.291,-7.679 l 1.73,-0.492 -0.857,-3.731 C 14.23,-15.976 7.797,-18.263 0,-17.086 c -8.441,1.282 -15.283,6.143 -15.283,10.86 0,0.594 0.107,1.152 0.312,1.682 l 1.274,4.863 3.429,-0.976 C -7.555,0.305 -3.953,0.6 0,0"
             style="fill:#ffbb00;fill-opacity:1;fill-rule:evenodd;stroke:none"
             id="path374" />
        </g>
        <g
           id="g376"
           transform="translate(729.7441,607.8071)">
          <path
             d="m 0,0 c 8.44,-1.278 15.283,-6.139 15.283,-10.856 0,-4.717 -6.843,-7.504 -15.283,-6.225 -8.441,1.282 -15.283,6.139 -15.283,10.855 0,4.718 6.842,7.508 15.283,6.226"
             style="fill:#ffdd30;fill-opacity:1;fill-rule:evenodd;stroke:none"
             id="path378" />
        </g>
        <g
           id="g380"
           transform="translate(752.6191,579.3926)">
          <path
             d="m 0,0 c 9.675,-1.469 17.52,-7.041 17.52,-12.447 0,-5.406 -7.845,-8.602 -17.52,-7.133 -9.674,1.463 -17.519,7.035 -17.519,12.441 0,5.411 7.845,8.606 17.519,7.139"
             style="fill:#660000;fill-opacity:1;fill-rule:evenodd;stroke:none"
             id="path382" />
        </g>
        <g
           id="g384"
           transform="translate(752.7051,579.1953)">
          <path
             d="m 0,0 c 6.53,-0.988 12.106,-4.123 14.292,-7.676 l 1.728,-0.496 -0.855,-3.726 C 14.231,-15.973 7.798,-18.264 0,-17.078 c -8.443,1.277 -15.285,6.139 -15.285,10.855 0,0.592 0.107,1.153 0.314,1.68 l 1.276,4.865 3.427,-0.976 C -7.553,0.309 -3.951,0.602 0,0"
             style="fill:#ffbb00;fill-opacity:1;fill-rule:evenodd;stroke:none"
             id="path386" />
        </g>
        <g
           id="g388"
           transform="translate(753.9727,584.041)">
          <path
             d="m 0,0 c 8.44,-1.277 15.283,-6.139 15.283,-10.856 0,-4.718 -6.843,-7.503 -15.283,-6.226 -8.439,1.279 -15.283,6.139 -15.283,10.857 0,4.717 6.844,7.502 15.283,6.225"
             style="fill:#ffdd30;fill-opacity:1;fill-rule:evenodd;stroke:none"
             id="path390" />
        </g>
        <g
           id="g392"
           transform="translate(572.8892,1031.7524)">
          <path
             d="M 0,0 2.535,-4.114 7.227,-5.252 4.1,-8.932 4.466,-13.75 0,-11.911 l -4.47,-1.839 0.366,4.818 -3.126,3.68 4.692,1.138 z"
             style="fill:#fff07f;fill-opacity:1;fill-rule:evenodd;stroke:none"
             id="path394" />
        </g>
        <g
           id="g396"
           transform="translate(598.7417,1029.7925)">
          <path
             d="M 0,0 C 0.836,-1.356 1.669,-2.71 2.506,-4.063 4.053,-4.44 5.6,-4.817 7.147,-5.191 6.118,-6.404 5.086,-7.618 4.053,-8.831 c 0.121,-1.587 0.244,-3.174 0.365,-4.765 -1.474,0.608 -2.946,1.21 -4.418,1.817 -1.473,-0.607 -2.944,-1.209 -4.416,-1.817 0.118,1.591 0.24,3.178 0.362,4.765 -1.03,1.213 -2.063,2.427 -3.094,3.64 1.547,0.374 3.094,0.751 4.642,1.128 C -1.67,-2.71 -0.833,-1.356 0,0"
             style="fill:#fff07f;fill-opacity:1;fill-rule:evenodd;stroke:none"
             id="path398" />
        </g>
        <g
           id="g400"
           transform="translate(624.5977,1027.8325)">
          <path
             d="M 0,0 C 0.822,-1.336 1.65,-2.679 2.477,-4.018 4.006,-4.391 5.535,-4.761 7.064,-5.134 6.045,-6.333 5.025,-7.532 4.006,-8.731 c 0.119,-1.569 0.24,-3.138 0.359,-4.71 -1.453,0.599 -2.912,1.199 -4.365,1.794 -1.457,-0.595 -2.916,-1.195 -4.369,-1.794 0.119,1.572 0.236,3.141 0.359,4.71 -1.019,1.199 -2.039,2.398 -3.058,3.597 1.529,0.373 3.058,0.743 4.588,1.116 C -1.656,-2.679 -0.83,-1.336 0,0"
             style="fill:#fff07f;fill-opacity:1;fill-rule:evenodd;stroke:none"
             id="path402" />
        </g>
        <g
           id="g404"
           transform="translate(650.4492,1025.8755)">
          <path
             d="M 0,0 C 0.815,-1.324 1.635,-2.649 2.449,-3.974 3.961,-4.34 5.475,-4.706 6.986,-5.076 5.979,-6.261 4.969,-7.449 3.963,-8.634 c 0.115,-1.551 0.238,-3.101 0.353,-4.652 -1.439,0.588 -2.876,1.184 -4.316,1.773 -1.439,-0.589 -2.879,-1.185 -4.318,-1.773 0.119,1.551 0.236,3.101 0.355,4.652 -1.006,1.185 -2.014,2.373 -3.023,3.558 1.511,0.37 3.023,0.736 4.539,1.102 C -1.633,-2.649 -0.818,-1.324 0,0"
             style="fill:#fff07f;fill-opacity:1;fill-rule:evenodd;stroke:none"
             id="path406" />
        </g>
        <g
           id="g408"
           transform="translate(676.3008,1023.9155)">
          <path
             d="M 0,0 C 0.809,-1.311 1.617,-2.617 2.424,-3.928 3.918,-4.29 5.412,-4.652 6.908,-5.016 5.91,-6.186 4.916,-7.359 3.918,-8.533 c 0.119,-1.533 0.232,-3.067 0.352,-4.6 -1.422,0.586 -2.844,1.171 -4.27,1.756 -1.42,-0.585 -2.842,-1.17 -4.264,-1.756 0.116,1.533 0.233,3.067 0.348,4.6 -0.994,1.174 -1.992,2.347 -2.986,3.517 1.492,0.364 2.99,0.726 4.484,1.088 C -1.611,-2.617 -0.803,-1.311 0,0"
             style="fill:#fff07f;fill-opacity:1;fill-rule:evenodd;stroke:none"
             id="path410" />
        </g>
        <g
           id="g412"
           transform="translate(702.1582,1021.9556)">
          <path
             d="M 0,0 C 0.797,-1.296 1.594,-2.589 2.391,-3.881 3.865,-4.24 5.346,-4.599 6.82,-4.958 5.836,-6.114 4.853,-7.273 3.869,-8.43 3.984,-9.948 4.1,-11.463 4.215,-12.979 2.811,-12.397 1.402,-11.822 0,-11.244 c -1.408,-0.578 -2.813,-1.153 -4.219,-1.735 0.115,1.516 0.229,3.031 0.348,4.549 -0.986,1.157 -1.971,2.316 -2.955,3.472 1.476,0.359 2.955,0.718 4.431,1.077 C -1.598,-2.589 -0.797,-1.296 0,0"
             style="fill:#fff07f;fill-opacity:1;fill-rule:evenodd;stroke:none"
             id="path414" />
        </g>
        <g
           id="g416"
           transform="translate(728.0098,1019.9985)">
          <path
             d="M 0,0 C 0.789,-1.277 1.576,-2.556 2.361,-3.838 3.824,-4.192 5.285,-4.545 6.742,-4.896 5.77,-6.045 4.797,-7.186 3.824,-8.332 c 0.114,-1.497 0.229,-2.998 0.344,-4.491 -1.389,0.567 -2.779,1.141 -4.168,1.712 -1.389,-0.571 -2.775,-1.145 -4.164,-1.712 0.111,1.493 0.226,2.994 0.34,4.491 -0.973,1.146 -1.946,2.287 -2.918,3.436 1.461,0.351 2.918,0.704 4.379,1.058 C -1.576,-2.556 -0.787,-1.277 0,0"
             style="fill:#fff07f;fill-opacity:1;fill-rule:evenodd;stroke:none"
             id="path418" />
        </g>
        <g
           id="g420"
           transform="translate(753.8652,1018.0386)">
          <path
             d="M 0,0 C 0.779,-1.264 1.555,-2.527 2.334,-3.791 3.777,-4.14 5.217,-4.487 6.66,-4.839 5.697,-5.971 4.738,-7.102 3.777,-8.232 c 0.116,-1.479 0.227,-2.958 0.338,-4.437 -1.373,0.564 -2.744,1.127 -4.115,1.691 -1.375,-0.564 -2.746,-1.127 -4.117,-1.691 0.115,1.479 0.226,2.958 0.338,4.437 -0.963,1.13 -1.922,2.261 -2.883,3.393 1.441,0.352 2.883,0.699 4.326,1.048 C -1.559,-2.527 -0.779,-1.264 0,0"
             style="fill:#fff07f;fill-opacity:1;fill-rule:evenodd;stroke:none"
             id="path422" />
        </g>
        <g
           id="g424"
           transform="translate(779.7168,1016.0786)">
          <path
             d="m 0,0 c 0.769,-1.249 1.537,-2.495 2.309,-3.741 1.421,-0.348 2.847,-0.693 4.273,-1.041 -0.951,-1.116 -1.9,-2.233 -2.848,-3.35 0.112,-1.461 0.223,-2.922 0.334,-4.383 -1.357,0.56 -2.711,1.113 -4.068,1.673 -1.356,-0.56 -2.709,-1.113 -4.066,-1.673 0.111,1.461 0.222,2.922 0.334,4.383 -0.948,1.117 -1.897,2.234 -2.848,3.35 1.426,0.348 2.851,0.693 4.275,1.041 C -1.539,-2.495 -0.768,-1.249 0,0"
             style="fill:#fff07f;fill-opacity:1;fill-rule:evenodd;stroke:none"
             id="path426" />
        </g>
        <g
           id="g428"
           transform="translate(805.5742,1014.1187)">
          <path
             d="m 0,0 2.275,-3.698 4.223,-1.02 -2.814,-3.309 0.33,-4.33 -4.014,1.651 -4.018,-1.651 0.33,4.33 -2.814,3.309 4.221,1.02 z"
             style="fill:#fff07f;fill-opacity:1;fill-rule:evenodd;stroke:none"
             id="path430" />
        </g>
        <g
           id="g432"
           transform="translate(572.3081,1008.8696)">
          <path
             d="M 0,0 C 0.847,-1.371 1.69,-2.743 2.538,-4.114 4.1,-4.495 5.665,-4.872 7.23,-5.249 6.189,-6.477 5.144,-7.704 4.103,-8.933 c 0.123,-1.607 0.245,-3.213 0.367,-4.817 -1.491,0.61 -2.981,1.225 -4.47,1.838 -1.486,-0.613 -2.977,-1.228 -4.467,-1.838 0.122,1.604 0.244,3.21 0.366,4.817 -1.041,1.229 -2.086,2.456 -3.127,3.684 1.566,0.377 3.127,0.754 4.693,1.135 C -1.687,-2.743 -0.844,-1.371 0,0"
             style="fill:#fff07f;fill-opacity:1;fill-rule:evenodd;stroke:none"
             id="path434" />
        </g>
        <g
           id="g436"
           transform="translate(571.73,985.9868)">
          <path
             d="M 0,0 C 0.847,-1.372 1.69,-2.743 2.534,-4.111 4.1,-4.491 5.665,-4.868 7.23,-5.249 6.189,-6.477 5.145,-7.705 4.1,-8.933 c 0.122,-1.604 0.248,-3.213 0.37,-4.817 -1.491,0.61 -2.981,1.228 -4.47,1.838 -1.49,-0.61 -2.977,-1.228 -4.467,-1.838 0.123,1.604 0.244,3.209 0.367,4.817 -1.042,1.228 -2.086,2.456 -3.128,3.684 1.563,0.381 3.128,0.758 4.693,1.138 C -1.687,-2.743 -0.844,-1.372 0,0"
             style="fill:#fff07f;fill-opacity:1;fill-rule:evenodd;stroke:none"
             id="path438" />
        </g>
        <g
           id="g440"
           transform="translate(571.1519,963.103)">
          <path
             d="M 0,0 C 0.844,-1.371 1.69,-2.739 2.534,-4.11 4.1,-4.487 5.665,-4.868 7.23,-5.248 6.186,-6.477 5.145,-7.704 4.1,-8.932 c 0.122,-1.605 0.244,-3.21 0.37,-4.818 -1.491,0.614 -2.98,1.228 -4.47,1.838 -1.49,-0.61 -2.979,-1.224 -4.47,-1.838 0.122,1.608 0.248,3.21 0.37,4.818 -1.045,1.228 -2.086,2.455 -3.13,3.684 1.565,0.38 3.13,0.761 4.695,1.138 C -1.691,-2.739 -0.844,-1.371 0,0"
             style="fill:#fff07f;fill-opacity:1;fill-rule:evenodd;stroke:none"
             id="path442" />
        </g>
        <g
           id="g444"
           transform="translate(570.5737,940.2241)">
          <path
             d="M 0,0 C 0.844,-1.372 1.691,-2.743 2.534,-4.111 4.1,-4.491 5.665,-4.872 7.231,-5.253 6.186,-6.48 5.145,-7.708 4.1,-8.937 c 0.122,-1.604 0.244,-3.209 0.366,-4.817 -1.487,0.617 -2.976,1.228 -4.466,1.838 -1.49,-0.61 -2.979,-1.221 -4.47,-1.838 0.122,1.608 0.244,3.213 0.37,4.817 -1.044,1.229 -2.089,2.457 -3.13,3.684 1.565,0.381 3.13,0.762 4.696,1.142 C -1.691,-2.743 -0.848,-1.372 0,0"
             style="fill:#fff07f;fill-opacity:1;fill-rule:evenodd;stroke:none"
             id="path446" />
        </g>
        <g
           id="g448"
           transform="translate(569.9956,917.3403)">
          <path
             d="M 0,0 2.535,-4.11 7.23,-5.252 4.1,-8.935 4.466,-13.75 0,-11.915 l -4.47,-1.835 0.366,4.815 -3.127,3.683 4.697,1.142 z"
             style="fill:#fff07f;fill-opacity:1;fill-rule:evenodd;stroke:none"
             id="path450" />
        </g>
        <g
           id="g452"
           transform="translate(805.8535,993.5396)">
          <path
             d="M 0,0 C 0.762,-1.234 1.518,-2.462 2.279,-3.697 3.684,-4.038 5.09,-4.38 6.498,-4.721 5.561,-5.822 4.623,-6.929 3.688,-8.03 c 0.111,-1.444 0.218,-2.887 0.33,-4.33 -1.34,0.549 -2.678,1.102 -4.018,1.651 -1.34,-0.549 -2.678,-1.102 -4.018,-1.651 0.112,1.443 0.223,2.886 0.331,4.33 -0.938,1.101 -1.873,2.208 -2.811,3.309 1.408,0.341 2.814,0.683 4.223,1.024 C -1.519,-2.462 -0.762,-1.234 0,0"
             style="fill:#fff07f;fill-opacity:1;fill-rule:evenodd;stroke:none"
             id="path454" />
        </g>
        <g
           id="g456"
           transform="translate(806.1367,972.9614)">
          <path
             d="M 0,0 C 0.758,-1.234 1.52,-2.466 2.279,-3.697 3.684,-4.039 5.092,-4.38 6.498,-4.725 5.561,-5.823 4.625,-6.929 3.688,-8.031 c 0.107,-1.447 0.218,-2.89 0.33,-4.333 -1.34,0.552 -2.678,1.105 -4.018,1.655 -1.338,-0.55 -2.678,-1.103 -4.018,-1.655 0.112,1.443 0.223,2.886 0.33,4.33 -0.935,1.105 -1.872,2.211 -2.81,3.309 1.408,0.345 2.81,0.686 4.223,1.028 C -1.518,-2.466 -0.762,-1.234 0,0"
             style="fill:#fff07f;fill-opacity:1;fill-rule:evenodd;stroke:none"
             id="path458" />
        </g>
        <g
           id="g460"
           transform="translate(806.4199,952.3794)">
          <path
             d="M 0,0 C 0.758,-1.232 1.52,-2.463 2.281,-3.694 3.684,-4.038 5.092,-4.376 6.498,-4.721 5.562,-5.823 4.625,-6.925 3.688,-8.03 3.795,-9.474 3.906,-10.917 4.014,-12.36 2.68,-11.808 1.34,-11.258 0,-10.709 c -1.338,-0.549 -2.678,-1.099 -4.016,-1.651 0.112,1.443 0.219,2.886 0.331,4.33 -0.938,1.105 -1.875,2.207 -2.813,3.309 1.408,0.345 2.813,0.683 4.219,1.027 C -1.518,-2.463 -0.76,-1.232 0,0"
             style="fill:#fff07f;fill-opacity:1;fill-rule:evenodd;stroke:none"
             id="path462" />
        </g>
        <g
           id="g464"
           transform="translate(806.7051,931.8013)">
          <path
             d="M 0,0 C 0.756,-1.231 1.518,-2.466 2.275,-3.698 3.684,-4.039 5.09,-4.38 6.498,-4.721 5.56,-5.823 4.623,-6.925 3.685,-8.031 c 0.108,-1.444 0.219,-2.886 0.329,-4.329 -1.34,0.552 -2.676,1.098 -4.014,1.651 -1.34,-0.553 -2.68,-1.099 -4.018,-1.651 0.112,1.443 0.219,2.885 0.33,4.329 -0.937,1.106 -1.874,2.208 -2.81,3.31 1.402,0.341 2.81,0.682 4.217,1.023 C -1.523,-2.466 -0.762,-1.231 0,0"
             style="fill:#fff07f;fill-opacity:1;fill-rule:evenodd;stroke:none"
             id="path466" />
        </g>
        <g
           id="g468"
           transform="translate(596.3257,916.6616)">
          <path
             d="m 0,0 c 0.836,-1.356 1.673,-2.714 2.509,-4.067 1.548,-0.377 3.095,-0.75 4.642,-1.124 -1.033,-1.217 -2.065,-2.427 -3.094,-3.644 0.122,-1.59 0.24,-3.177 0.362,-4.764 -1.472,0.607 -2.943,1.213 -4.419,1.817 -1.473,-0.604 -2.944,-1.21 -4.416,-1.817 0.122,1.587 0.24,3.174 0.362,4.764 -1.03,1.217 -2.06,2.427 -3.094,3.644 1.547,0.374 3.094,0.747 4.642,1.124 C -1.67,-2.714 -0.833,-1.356 0,0"
             style="fill:#fff07f;fill-opacity:1;fill-rule:evenodd;stroke:none"
             id="path470" />
        </g>
        <g
           id="g472"
           transform="translate(622.6582,915.98)">
          <path
             d="M 0,0 C 0.826,-1.339 1.652,-2.679 2.478,-4.021 4.01,-4.391 5.537,-4.761 7.066,-5.134 6.049,-6.333 5.029,-7.532 4.01,-8.732 c 0.119,-1.572 0.238,-3.14 0.359,-4.709 -1.457,0.599 -2.91,1.199 -4.369,1.795 -1.453,-0.596 -2.91,-1.196 -4.365,-1.795 0.119,1.569 0.236,3.137 0.359,4.709 -1.019,1.2 -2.039,2.399 -3.058,3.598 1.529,0.373 3.058,0.743 4.587,1.113 C -1.65,-2.679 -0.826,-1.339 0,0"
             style="fill:#fff07f;fill-opacity:1;fill-rule:evenodd;stroke:none"
             id="path474" />
        </g>
        <g
           id="g476"
           transform="translate(648.9922,915.3013)">
          <path
             d="M 0,0 C 0.814,-1.324 1.633,-2.649 2.447,-3.975 3.959,-4.341 5.475,-4.706 6.986,-5.072 5.977,-6.261 4.973,-7.449 3.963,-8.634 c 0.119,-1.551 0.234,-3.102 0.355,-4.653 -1.439,0.589 -2.879,1.184 -4.318,1.773 -1.44,-0.589 -2.879,-1.184 -4.318,-1.773 0.117,1.551 0.236,3.102 0.355,4.653 -1.01,1.185 -2.016,2.373 -3.023,3.562 1.511,0.366 3.023,0.731 4.537,1.098 C -1.633,-2.649 -0.818,-1.324 0,0"
             style="fill:#fff07f;fill-opacity:1;fill-rule:evenodd;stroke:none"
             id="path478" />
        </g>
        <g
           id="g480"
           transform="translate(675.3262,914.6226)">
          <path
             d="M 0,0 C 0.803,-1.311 1.611,-2.62 2.418,-3.928 3.912,-4.293 5.406,-4.652 6.902,-5.019 5.908,-6.19 4.91,-7.359 3.916,-8.533 c 0.115,-1.533 0.232,-3.07 0.348,-4.599 -1.422,0.581 -2.844,1.17 -4.264,1.752 -1.422,-0.582 -2.848,-1.171 -4.27,-1.752 0.12,1.529 0.233,3.066 0.352,4.595 -0.998,1.174 -1.992,2.347 -2.99,3.518 1.496,0.367 2.99,0.726 4.488,1.091 C -1.617,-2.62 -0.809,-1.311 0,0"
             style="fill:#fff07f;fill-opacity:1;fill-rule:evenodd;stroke:none"
             id="path482" />
        </g>
        <g
           id="g484"
           transform="translate(701.6543,913.9409)">
          <path
             d="M 0,0 C 0.801,-1.293 1.598,-2.585 2.394,-3.881 3.871,-4.24 5.35,-4.6 6.826,-4.954 5.842,-6.114 4.857,-7.273 3.875,-8.43 3.988,-9.948 4.104,-11.463 4.219,-12.979 2.813,-12.4 1.408,-11.822 0,-11.244 c -1.402,-0.578 -2.81,-1.156 -4.215,-1.735 0.115,1.516 0.231,3.031 0.35,4.549 -0.989,1.157 -1.971,2.316 -2.955,3.476 1.474,0.354 2.955,0.714 4.429,1.073 C -1.594,-2.585 -0.797,-1.293 0,0"
             style="fill:#fff07f;fill-opacity:1;fill-rule:evenodd;stroke:none"
             id="path486" />
        </g>
        <g
           id="g488"
           transform="translate(727.9883,913.2622)">
          <path
             d="M 0,0 C 0.789,-1.281 1.576,-2.56 2.365,-3.838 3.824,-4.189 5.285,-4.545 6.742,-4.9 5.769,-6.042 4.797,-7.187 3.826,-8.333 c 0.112,-1.497 0.227,-2.994 0.342,-4.494 -1.389,0.574 -2.779,1.144 -4.168,1.716 -1.389,-0.572 -2.779,-1.142 -4.168,-1.716 0.115,1.5 0.23,2.997 0.344,4.494 -0.973,1.142 -1.945,2.291 -2.918,3.433 1.461,0.355 2.918,0.711 4.379,1.062 C -1.576,-2.56 -0.787,-1.281 0,0"
             style="fill:#fff07f;fill-opacity:1;fill-rule:evenodd;stroke:none"
             id="path490" />
        </g>
        <g
           id="g492"
           transform="translate(754.3223,912.5835)">
          <path
             d="m 0,0 c 0.777,-1.264 1.553,-2.527 2.336,-3.791 1.439,-0.352 2.883,-0.7 4.326,-1.048 -0.963,-1.135 -1.924,-2.263 -2.887,-3.393 0.116,-1.483 0.227,-2.961 0.342,-4.441 -1.375,0.568 -2.746,1.127 -4.117,1.694 -1.373,-0.567 -2.744,-1.126 -4.119,-1.694 0.115,1.48 0.226,2.958 0.342,4.438 -0.963,1.133 -1.924,2.261 -2.887,3.396 1.443,0.348 2.887,0.696 4.326,1.048 C -1.559,-2.527 -0.779,-1.264 0,0"
             style="fill:#fff07f;fill-opacity:1;fill-rule:evenodd;stroke:none"
             id="path494" />
        </g>
        <g
           id="g496"
           transform="translate(780.6543,911.9019)">
          <path
             d="M 0,0 C 0.769,-1.25 1.537,-2.495 2.305,-3.741 3.73,-4.09 5.156,-4.434 6.58,-4.782 5.629,-5.896 4.682,-7.016 3.73,-8.128 c 0.112,-1.465 0.223,-2.927 0.334,-4.388 -1.353,0.557 -2.711,1.114 -4.064,1.673 -1.357,-0.559 -2.711,-1.116 -4.066,-1.673 0.111,1.461 0.222,2.923 0.334,4.384 -0.95,1.116 -1.901,2.236 -2.848,3.35 1.426,0.348 2.848,0.692 4.271,1.041 C -1.539,-2.495 -0.772,-1.25 0,0"
             style="fill:#fff07f;fill-opacity:1;fill-rule:evenodd;stroke:none"
             id="path498" />
        </g>
        <g
           id="g500"
           transform="translate(806.9844,911.2231)">
          <path
             d="m 0,0 2.279,-3.698 4.219,-1.023 -2.81,-3.31 0.33,-4.329 -4.018,1.651 -4.014,-1.651 0.33,4.329 -2.814,3.31 4.223,1.023 z"
             style="fill:#fff07f;fill-opacity:1;fill-rule:evenodd;stroke:none"
             id="path502" />
        </g>
        <g
           id="g504"
           transform="translate(319.6694,261.8027)">
          <path
             d="M 0,0 1.526,513.342 C 64.902,454.299 108.902,324.736 108.902,174.373 108.902,96.764 97.177,24.691 77.123,-35.004 Z"
             style="fill:#700000;fill-opacity:1;fill-rule:evenodd;stroke:none"
             id="path506" />
        </g>
      </g>
    </g>
  </g>
</svg>
